<svg xmlns="http://www.w3.org/2000/svg" viewBox="0 0 416.41 456.82"><defs><style>.a{fill:#d77a65;}.b{fill:#af4239;}.c{fill:#861d24;}.d{fill:#e4ecf0;}</style></defs><path class="a" d="M54.8,63.52c5.44-7,12.09-12.73,18.91-18.3,3.18-2.6,6.23-5.37,9.33-8,11.47-7.41,22.9-14.87,35.44-20.44a189.63,189.63,0,0,1,53.78-15.1A201.29,201.29,0,0,1,271.07,13.7a216,216,0,0,1,65.28,39.83,218.82,218.82,0,0,1,24.57,25.36c.92,1.12,1.64,2.4,2.46,3.6,0,1,0,2-.05,2.91-1.79-1.83-3.74-3.54-5.36-5.52A214.94,214.94,0,0,0,305.1,33.73c-15.05-9.42-31.27-16.18-48-21.82-6.49-2.18-13.21-3.4-19.86-4.95-13.94-3.27-28-4.25-42.25-4.42a1.36,1.36,0,0,0-.66-.12c-8.65.79-17.38,1.14-25.95,2.46A189.5,189.5,0,0,0,88.72,36.45C76.33,44.93,65.47,55.19,54.83,65.7Z"/><path class="b" d="M415.67,245.24c-.06,2,.61,4.08-.47,6-.26-.2-.56-1.19-.74-.5-.34,1.31-.63,2.84.47,4.08-.14,1.24-.29,2.48-.43,3.72-.5-1.44-2.06-2-1.85-4.25a228.55,228.55,0,0,0-2-58.18,242.23,242.23,0,0,0-32.49-88.49C374.51,101.7,369.61,96.56,367,90l1-1.6c15.13,19.55,26.23,41.24,34.47,64.47,7.23,20.36,11.25,41.4,13,62.89.14,1.7.05,3.42.06,5.14A98.3,98.3,0,0,0,415.67,245.24Z"/><path class="c" d="M415.67,245.24a98.3,98.3,0,0,1-.08-24.36l.31,2.94c.1,2.23.19,4.47.28,6.7,0,.11-.13.25-.1.33a4.36,4.36,0,0,0,.33.6Q416.05,238.35,415.67,245.24Z"/><path class="b" d="M363.33,85.41c0-1,0-2,.05-2.92l3.21,4-1.86.76Z"/><path class="a" d="M364.73,87.25l1.86-.76.47.48.71,1.09a.24.24,0,0,1,.24.32L367,90Z"/><path class="b" d="M367.77,88.06,367.06,87Z"/><path class="c" d="M364.73,87.25,367,90c2.59,6.58,7.49,11.72,11.11,17.66a242.23,242.23,0,0,1,32.49,88.49,228.55,228.55,0,0,1,2,58.18c-.21,2.25,1.35,2.81,1.85,4.25A229.16,229.16,0,0,1,398,324a217.94,217.94,0,0,1-50.88,75.15c-26.8,25.75-58.24,43.34-94.52,52l-1-.76c.25-1.59,1.63-1.12,2.58-1.44,7.17-2.37,14.81-3.37,21.39-7.44l.89-.18c7.71-1.76,14.36-5.94,21.36-9.31a184.64,184.64,0,0,0,47.34-33.87c1.1-1.07,3.71-2.35,2.19-3.95s-3.88-1-5.86.75c-8.2,7.37-16.36,14.79-25.74,20.7-5.68,3.58-11.2,7.43-17.87,10.39a4.41,4.41,0,0,1,3.07-3.37c7.07-3.23,13.29-7.85,19.44-12.42A193,193,0,0,0,357.15,375c1.1-1.4,2.87-2.5,1.9-4.74s-3.06-2-4.76-1.72c-8.28,1.52-16.47,3.68-25,3.12-.55,0-1.13.44-1.7.67-12.11,4.89-24.87,5.45-37.69,5.8-4.21.11-8.68-.15-12.56,1.16-5.06,1.72-9.62,4.87-14.44,7.32-1.7.87-2.28,1.77-1.52,3.77,2.26,6,4.41,12,6.36,18.07,2.08,6.47,3.88,13,5.8,19.56a1.87,1.87,0,0,1-1.53-1.32c-3.52-10.72-7.21-21.38-10.47-32.18-1.56-5.18-3.75-5.78-8.73-3.78A114.59,114.59,0,0,1,212,398.82a14.32,14.32,0,0,1,1.95-.75,166.59,166.59,0,0,0,40.28-9.6c1.68-.65,4.09-1,3.39-3.49-1.09-3.87-1.66-8.08-7.4-8.56-5.45-.46-10.82-2-16.2-3.21-14.75-3.24-27.7-10.54-40.5-18.13-2.56-1.52-3.39-1.15-3.65,1.75-.35,3.89-.77,7.8-1.48,11.64-1.24,6.67-.81,13.67-3.85,20l.14-2.18c1.46-11.86,2.88-23.71,4.42-35.56.43-3.29-.37-5-4-5.67a94.31,94.31,0,0,1-36.35-15c-1.73-1.2-3.29-2.55-5.55-1.41.91-1.86-1.29-2.82-1.3-4.41,2.69.69,5,.76,5.24-3,1.15-.15,2.11,0,2.3,1.42-1.11,1.57-4.86,2.71-1.21,5.18a112.12,112.12,0,0,0,20.79,11c1.75.71,4.12,2.13,5.5.93,1.75-1.51-1.66-2.54-1.53-4.29a6.85,6.85,0,0,0-.07-1.1,76,76,0,0,0,18.51,3.79c0,1,.05,1.95,0,2.91s-1.19,2.66.88,2.78,4.53,1.07,5.81-.6c.86-1.13-1.94-1.31-2.46-2.54-.08-.18,0-.44.05-1.16a24.64,24.64,0,0,0,4.21,0c2.61-.46,5.6,1.33,7.85-1.26l2.15-.19c1.22,1.06,2.27,1.08,3-.53l2.13-.28c.87,1.08,1.24.4,1.57-.45l1.39-.2c.88,1,1.25.32,1.58-.5l1.37-.24c4.39-.2,8.56-1,11.74-4.42h0a9.51,9.51,0,0,0,4.89-1.28c10.65-5,19.06-12.75,26.75-21.34,2.11-2.36,5.22-4.75,3.85-8.83,1.3-2.22,2.72-4.37,3.87-6.66,20.16-40.1,15.44-78.88-6.33-116.69-8-13.85-18.91-25.2-30.9-35.59.06-.55.13-1.11.19-1.66l1.43.3,1.37.66,11.94,11.75c.77.94,1.53,1.89,2.31,2.82,9,10.64,17.32,21.69,22.58,34.72.65,1.63,1,2.93,2.91,1.66,1.55-1,4.75-.77,3.23-4.42-3.32-8-8.15-15.11-13-22.2-2.89-4.24-6.17-8.2-9.27-12.29a3.24,3.24,0,0,1,2.5,1.19c8.73,9.46,15.41,20.26,20.91,31.84.71,1.52,1.11,3.33,3.64,2,15.08-8,30.22-15.94,45.3-24,1-.52,2.51-.94,1.43-3-5.84-11.24-12.12-22.19-20.23-32-4.23-5.12-8.49-10.23-12.92-15.56,1.93-.41,2.46.79,3.12,1.53,11.81,13.21,22.85,27,30.25,43.26,1.4,3.07,2.71,3.3,5.46,1.72,5.21-3,10.56-5.76,15.95-8.41,4.17-2.05,5.23-5.13,3.86-9.36-2.06-6.4-2.4-13.14-4.48-19.62-3.33-10.37-6.74-20.63-12.15-30.11-8.71-15.25-18.54-29.66-31.44-41.81-4.23-4-5.63-4.34-8.89.41-3.55,5.18-6.89,10.5-10.51,16-1-1.64-.15-2.23.27-2.92,3.67-6.06,7.27-12.18,11.1-18.15,1.57-2.45,1.31-3.77-1.25-5.25a255,255,0,0,0-24.74-13.07c-24.92-11-50.88-17-78.19-16.77-1.69,0-3.12.14-3.62,2.45.08-3.8-2.42-3.2-4.44-3-4.14.36-8.27.89-12.4,1.34-27.74,3-53.61,11.52-77.37,26.28-9.34,5.79-9,5.62-5.54,15.81,2.23,6.63,4.42,13.43,4.78,20.57C96.07,65.28,93.4,56.69,91,48c-.86-3.13-1.82-4.37-4.75-1.92-5.65,4.7-11.41,9.28-17.06,14A49.08,49.08,0,0,0,53.61,83.55c-5.82,18.17-8.38,37.28-16.15,54.87-1,2.31-.19,4.53,1.67,6.76A150.63,150.63,0,0,1,72.5,103.9c-9.32,10.41-18.78,20.74-26.07,32.72-2.85,4.7-8.6,8.78-5.5,15.87l-2.14-2.81a159.91,159.91,0,0,0-17.55,51.89L29,184.75l13.32-20.19,2.79-3.49.26-.24a.32.32,0,0,0,.33-.4A1,1,0,0,1,46,160l.25-.1,0-.27,1.31-1.69c.82,0,1.21-.34,1.19-1.15l1-1.14c.25,0,.36-.12.33-.36a1.28,1.28,0,0,1,.38-.42,2.68,2.68,0,0,0,2-2.45l1.79-1.86c.8,0,1.17-.32,1.12-1.11l3.3-3.23,16.18-12.44,2.07-1.47.09-.07a215.14,215.14,0,0,1,24.26-12.7l1.17-.23a.92.92,0,0,0,.39-.31v0c12-3.91,24.21-7.32,36.93-8.22.74.73,1.57.34,2.42.28A132.47,132.47,0,0,1,183.36,115c-5.52,2.7-10.1,4.65-14.38,7.11-7.12,4.09-14.78,7.56-19.57,14.76l0,0-.8.75,0,0c-4.89,2.51-9.34,5.45-11.05,11.11-2.78.37-3.91,2.11-3.94,4.75l-.73,1c-1.3,0-1.5.93-1.48,2l-.74,1c-1.05.08-1.43.64-1.21,1.65l-.62.86-.07-.23.1.22c-.95,0-1,.62-.87,1.36l-.19-.09.18.1-.63.85-.09-.19.12.17c-1.25.11-1.08,1-1.08,1.88l-.06.07c-1.1.13-1.5.68-1,1.75h0c-1,0-1.05.61-.87,1.37l-.17-.09.16.11c-1,.14-1.55.69-1.31,1.79l.11.19-.13.19c-1,.18-1.09.75-.72,1.55v.1c-1.3-.05-1.12.92-1.18,1.72l-.08.18-.35.92v0c-.93.21-.92.76-.54,1.45l0,.25c-.69-.09-.81.26-.63.83a.31.31,0,0,1,0,.47c-1.07.06-1.13.63-.74,1.44l0,.2c-1.55-.05-1,1-1,1.81l-.17.18-.67,1.31c-7.53,19.25-11,39.12-9.32,59.8-.58.63-1.24,2.25-1.78.07-.32-1.29-.13-2.69-.32-4-.27-2-1.36-2.91-3.53-2.74-2.54.19-2.2,1.93-2.06,3.45.36,4,.72,8.05,1.35,12,.86,5.4,2,10.76,3.28,17.87-1.28-2.51-2-3.42-2.21-4.42-1.4-8.06-2.65-16.15-4-24.21-.26-1.51,1.13-3.94-1.28-4.33-2-.32-3.67,1-5.13,2.84-10,12.43-18.45,25.93-27.23,39.19-2.6,3.92-5.82,8.22-3.33,13.83s4.61,11.61,6.89,17.43c.36.93,1.39,1.8-.36,2.61q-17.65,8.18-35.24,16.49c-1.88.89-3.37,1.85-2.24,4.5a182.31,182.31,0,0,0,19.84,35.18c3.86,5.35,7.83,10.63,12,16.32-1.9-.11-2.3-1.08-2.92-1.81-6.9-8-12.8-16.7-18.59-25.51-.56-.85-1.26-2.78-2.12-2.13-3.1,2.33-3.55-1.2-5.19-2l-.75-1.47L32,349.28l-.74-1.47-.74-1.48-.28-.89-.26.17.51.75.73,1.48.74,1.48c.24.49.48,1,.73,1.47l.73,1.48-.61,1.47A198.64,198.64,0,0,1,9.61,274.93c-.8-9.44-4-18.66-5.92-28A203.43,203.43,0,0,1,.2,198.15c1-23.54,5.09-46.5,13.93-68.4,4.59-11.38,8.51-23.19,16.51-32.9.53-.25,1.29-.36,1.54-.77C38.83,85.28,47,75.65,54.83,65.7c10.64-10.51,21.5-20.77,33.89-29.25.88,1.38-.27,5.59,3.16,3.46a219.49,219.49,0,0,1,28.48-15.36A189.38,189.38,0,0,1,184.74,9.12c5-.31,9.82.5,9.57-6.7a1.36,1.36,0,0,1,.66.12c1.75,1.79-3.29,6.51,2.63,6.4a171.08,171.08,0,0,1,52.15,7.29c7,2.08,13.87,4.33,22.36,7-4-3.71-7.47-5.13-10.72-6.92-1.83-1-4.36-1.48-4.31-4.39,16.75,5.64,33,12.4,48,21.82A214.94,214.94,0,0,1,358,79.88c1.62,2,3.57,3.69,5.36,5.52Zm-32.91,94c1.82.56,2.89.67,3.61-.13,1.66-1.86,3.07-4.19,2.59-6.59-.73-3.56-1.89-7.13-4.4-10-.21-.23-1.33.17-1.92.49q-19.53,10.32-39,20.71c-1.84,1-5,1.49-4.34,4.22s3.25.55,5,.71a4.3,4.3,0,0,1,.72.09c11.25,3.07,20.84-2.21,30.82-5.88C327.55,183.9,329.37,181,331.82,181.23ZM37.89,319.68c-.22,3.8,1.57,2.9,3.43,2q11.43-5.44,22.88-10.82c2-.94,2.89-2.11,1.73-4.31-3.68-7-5.81-14.52-8-22-.3-1,0-2.48-1.4-2.73-1.6-.29-1.9,1.39-2.47,2.33A182.88,182.88,0,0,0,42.2,307.3C40.45,311.43,39.23,315.79,37.89,319.68Zm310.18,71.49c3.05.56,4.59-.23,5.86-1.76,2.4-2.9,4.86-5.76,7.22-8.71.76-.95,2.71-1.67,1.65-3.21-1.23-1.81-3.09-.47-4.27.2-4.54,2.57-6.91,7.45-10.87,10.7-.69.56-1.63,1.71-1.45,2.27C346.62,392,348.1,391.17,348.07,391.17ZM105,226.59c0-1.34.06-2.69,0-4,0-.91.49-2.22-.63-2.63s-1.87.9-2.56,1.65c-2.4,2.61-1.81,5.91-1.92,9-.06,1.71.35,2.77,2.39,2.8s2.9-.77,2.77-2.8C104.94,229.28,105,227.93,105,226.59Z"/><path class="b" d="M184.51,388.46c3-6.32,2.61-13.32,3.85-20,.71-3.84,1.13-7.75,1.48-11.64.26-2.9,1.09-3.27,3.65-1.75,12.8,7.59,25.75,14.89,40.5,18.13,5.38,1.18,10.75,2.75,16.2,3.21,5.74.48,6.31,4.69,7.4,8.56.7,2.47-1.71,2.84-3.39,3.49a166.59,166.59,0,0,1-40.28,9.6,14.32,14.32,0,0,0-1.95.75,114.59,114.59,0,0,0,40.83-8.07c5-2,7.17-1.4,8.73,3.78,3.26,10.8,7,21.46,10.47,32.18a1.87,1.87,0,0,0,1.53,1.32c-1.92-6.53-3.72-13.09-5.8-19.56-2-6.08-4.1-12.1-6.36-18.07-.76-2-.18-2.9,1.52-3.77,4.82-2.45,9.38-5.6,14.44-7.32,3.88-1.31,8.35-1.05,12.56-1.16,12.82-.35,25.58-.91,37.69-5.8.57-.23,1.15-.71,1.7-.67,8.54.56,16.73-1.6,25-3.12,1.7-.31,3.78-.56,4.76,1.72s-.8,3.34-1.9,4.74a193,193,0,0,1-36.81,35.25c-6.15,4.57-12.37,9.19-19.44,12.42a4.41,4.41,0,0,0-3.07,3.37c6.67-3,12.19-6.81,17.87-10.39,9.38-5.91,17.54-13.33,25.74-20.7,2-1.79,4.42-2.26,5.86-.75s-1.09,2.88-2.19,3.95A184.64,184.64,0,0,1,297.77,432c-.74-3.28-3-3-5.33-2.15-4,1.55-7.75,3.74-11.83,4.88-3.78,1.06-5,3-4.2,6.58l-.89.18c-.47-3.45-2-4.26-5.27-2.62a36.45,36.45,0,0,1-7,2.17c-5.87,1.57-11.61,3.78-19.19,4l27.23-8.45c1.43-.44,2.92-.7,2.2-2.93-.61-1.84-.48-4-3.36-4a26.46,26.46,0,0,1-5.07-.65,117.61,117.61,0,0,1-26.86-8.7c-12.86-6-26.09-11.08-37.86-19.33-4.39-3.08-10.34-2.41-15.71-2-1.32.11-1.16,1.64-1.37,2.72-1.13,5.68-2.32,11.35-3.48,17a102.52,102.52,0,0,1,2.17-18.14c.37-1.92,0-2.45-2-2.79a109.45,109.45,0,0,1-14.71-3.19c-17.17-5.46-33.51-12.76-48.09-23.55-2-1.44-3.06-1.32-4.56.5-8.27,10-16.54,20.05-25,29.9-2.07,2.41-2,3.69.54,5.51,4.9,3.48,9.61,7.24,14.55,11-1.42.85-2.06.09-2.72-.38-4.79-3.42-9.62-6.78-14.31-10.33-1.68-1.27-2.76-1.06-4.05.41s-.41,2.21.62,3A198.41,198.41,0,0,0,119,434.32a200.43,200.43,0,0,0,108.57,19.32c8-.78,15.8-3.47,24-3.23l1,.76a190.2,190.2,0,0,1-76,3.3c-38.49-5.94-72.3-22-101.49-47.63a190.45,190.45,0,0,1-40.77-50.28l-1.59-2.83c.21-.48.41-1,.61-1.46l.08-.06c1.64.78,2.09,4.31,5.19,2,.86-.65,1.56,1.28,2.12,2.13,5.79,8.81,11.69,17.52,18.59,25.51.62.73,1,1.7,2.92,1.81-4.2-5.69-8.17-11-12-16.32A182.31,182.31,0,0,1,30.4,332.14c-1.13-2.65.36-3.61,2.24-4.5q17.61-8.28,35.24-16.49c1.75-.81.72-1.68.36-2.61-2.28-5.82-4.35-11.73-6.89-17.43s.73-9.91,3.33-13.83c8.78-13.26,17.23-26.76,27.23-39.19,1.46-1.81,3.12-3.16,5.13-2.84,2.41.39,1,2.82,1.28,4.33,1.37,8.06,2.62,16.15,4,24.21.17,1,.93,1.91,2.21,4.42-1.32-7.11-2.42-12.47-3.28-17.87-.63-4-1-8-1.35-12-.14-1.52-.48-3.26,2.06-3.45,2.17-.17,3.26.73,3.53,2.74.19,1.33,0,2.73.32,4,.54,2.18,1.2.56,1.78-.07.14,1.15.27,2.29.41,3.43a6.58,6.58,0,0,0-1.12,5c1.6-.38.75-1.85,1.54-2.43.51,2.51,1,5,1.53,7.53,2.06,10.74,6.54,20.64,10.63,30.68a5.41,5.41,0,0,0-6,1.51c-1.64,1.89.56,3.29,1.33,4.82,3.73,7.39,9.15,13.57,14.37,19.89a4,4,0,0,0,2.32,1.56c1.43.09,1.07-1.32,1.18-2.22.12-1.12.59-2.34,1.7-1.11,3.59,4,8.47,6.6,11.6,11-.21,3.71-2.55,3.64-5.24,3h.07l-.85,0a17.63,17.63,0,0,1-2.72-1.72,123.11,123.11,0,0,1-25-31.15c-.52-.93-.8-3-2.4-2.09-4.43,2.49-9.63,3.6-13.08,7.88-7.38,9.15-10.24,20.6-15.94,30.59a4.65,4.65,0,0,0,.48,5.2c6.94,10,14.56,19.45,24.06,27.19,8.48,6.91,8.48,6.82,14.9-2,7.22-9.88,14.54-19.69,21.81-29.53,2.26-1.14,3.82.21,5.55,1.41a94.31,94.31,0,0,0,36.35,15c3.65.7,4.45,2.38,4,5.67-1.54,11.85-3,23.7-4.42,35.56-.9-.34-2-.43-2.65-1-5.76-5.72-11.81-11.19-17-17.37-8.33-9.88-14.52-21.21-20.5-32.62-1.11-2.11-2.08-2.93-3.89-.48-7.71,10.45-15.47,20.88-23.37,31.19-1.62,2.13-.58,2.93,1,4.06,16.46,12.13,34.84,20.08,54.63,24.85,9,2.16,9,2,11.47-6.12C184.31,388.64,184.43,388.56,184.51,388.46ZM65.22,384.11a3.14,3.14,0,0,0,.41,1.38A101.42,101.42,0,0,0,82,401.85c1.26,1,2-.15,2.77-.88,10-9.62,18.63-20.45,27.47-31.09,1.09-1.31.69-2-.52-3-11.73-8.85-21.18-19.92-30.18-31.4-1.89-2.42-2.82-1.84-3.69.55-2.33,6.44-4.93,12.75-7,19.29C67.81,364.65,66.93,374.25,65.22,384.11Zm-2.2,3c-1.25,1.7-1.94,3.1-.52,5,4.24,5.66,9.86,9.9,14.94,14.69,1.63,1.54,2.7-.39,3.73-1.14,1.38-1,.25-1.89-.57-2.64L64.85,388.58C64.32,388.1,63.74,387.67,63,387.07Z"/><path class="b" d="M54.83,65.7c-7.79,10-16,19.58-22.65,30.38-.25.41-1,.52-1.54.77.57-4,3.66-6.59,5.73-9.67C41.3,79.86,45.54,72,52.64,66.34c1-.81,0-3,2.16-2.82Z"/><path class="c" d="M414.93,254.84c-1.1-1.24-.81-2.77-.47-4.08.18-.69.48.3.74.5Z"/><path class="d" d="M416.41,231.45a4.36,4.36,0,0,1-.33-.6c0-.08.07-.22.1-.33C416.26,230.83,416.34,231.14,416.41,231.45Z"/><path class="b" d="M194.31,2.42c.25,7.2-4.6,6.39-9.57,6.7a189.38,189.38,0,0,0-64.38,15.43A219.49,219.49,0,0,0,91.88,39.91c-3.43,2.13-2.28-2.08-3.16-3.46A189.5,189.5,0,0,1,168.36,4.88C176.93,3.56,185.66,3.21,194.31,2.42Z"/><path class="b" d="M257.08,11.91c-.05,2.91,2.48,3.39,4.31,4.39,3.25,1.79,6.71,3.21,10.72,6.92-8.49-2.66-15.4-4.91-22.36-7A171.08,171.08,0,0,0,197.6,8.94c-5.92.11-.88-4.61-2.63-6.4,14.22.17,28.31,1.15,42.25,4.42C243.87,8.51,250.59,9.73,257.08,11.91Z"/><path class="b" d="M29,184.75l-7.71,16.82a159.91,159.91,0,0,1,17.55-51.89l2.14,2.81c-3.1-7.09,2.65-11.17,5.5-15.87,7.29-12,16.75-22.31,26.07-32.72a150.63,150.63,0,0,0-33.37,41.28c-1.86-2.23-2.69-4.45-1.67-6.76,7.77-17.59,10.33-36.7,16.15-54.87A49.08,49.08,0,0,1,69.2,60.08c5.65-4.7,11.41-9.28,17.06-14C89.19,43.65,90.15,44.89,91,48c2.39,8.67,5.06,17.26,7.86,25.82-.36-7.14-2.55-13.94-4.78-20.57-3.43-10.19-3.8-10,5.54-15.81C123.39,22.7,149.26,14.2,177,11.18c4.13-.45,8.26-1,12.4-1.34,2-.17,4.52-.77,4.44,3,.5-2.31,1.93-2.43,3.62-2.45,27.31-.23,53.27,5.82,78.19,16.77a255,255,0,0,1,24.74,13.07c2.56,1.48,2.82,2.8,1.25,5.25-3.83,6-7.43,12.09-11.1,18.15-.42.69-1.26,1.28-.27,2.92,3.62-5.54,7-10.86,10.51-16,3.26-4.75,4.66-4.4,8.89-.41,12.9,12.15,22.73,26.56,31.44,41.81,5.41,9.48,8.82,19.74,12.15,30.11,2.08,6.48,2.42,13.22,4.48,19.62,1.37,4.23.31,7.31-3.86,9.36-5.39,2.65-10.74,5.41-15.95,8.41-2.75,1.58-4.06,1.35-5.46-1.72-7.4-16.27-18.44-30-30.25-43.26-.66-.74-1.19-1.94-3.12-1.53,4.43,5.33,8.69,10.44,12.92,15.56,8.11,9.8,14.39,20.75,20.23,32,1.08,2.08-.44,2.5-1.43,3-15.08,8-30.22,15.93-45.3,24-2.53,1.35-2.93-.46-3.64-2-5.5-11.58-12.18-22.38-20.91-31.84a3.24,3.24,0,0,0-2.5-1.19c3.1,4.09,6.38,8.05,9.27,12.29,4.84,7.09,9.67,14.19,13,22.2,1.52,3.65-1.68,3.38-3.23,4.42-1.88,1.27-2.26,0-2.91-1.66-5.26-13-13.6-24.08-22.58-34.72-.78-.93-1.54-1.88-2.31-2.82,2.24,0,3.77-1.32,5.14-2.9,3.13-1.94-1.13-2.2-.79-3.5,5.7-3,9.48-8.07,12.91-13.12,6.67-9.86,6.88-21.52,7.8-32.89.14-1.68-.08-3.41-1.86-4s-2.46,1.38-3.23,2.41c-8.69,11.7-17.24,23.53-26,35.22-1.23,1.65-.76,2.16.42,3.48,2.68,3,6.89,4.4,8.53,8.4l-.09,1.86c-2.36-2.25-4.85-4.4-7.06-6.79-2.74-3-5.22-4.12-7.75.1l-1.37-.66c3.72-3.19,2.58-5.51-1.18-7.66a48,48,0,0,1-5.32-4.07,24.43,24.43,0,0,1,8.55,4.54c1.79,1.43,3,1.3,4.25-.47,9.19-12.73,18.36-25.47,27.62-38.15,1.4-1.93,1.3-3-.81-4.28a177.45,177.45,0,0,0-23.89-13c-5.11-2.21-10.29-4.24-15.44-6.36,10.52,1.92,20.07,6.22,29.39,11.12,1.41.74,2.87,3,4.37,1.43,1.17-1.21-.24-3.32-1.12-4.69-7.54-11.8-17-21.86-29-29.06-11.69-7-24.67-10.52-38.05-12.67-2.62-.42-4,.14-4.37,3.26-.64,5.78-1.82,11.51-2.78,17.25a113.83,113.83,0,0,1,1.77-19.56c.39-2.53,0-4.31-3-4-8.26.91-16.61.82-24.79,2.56-12.1,2.58-22.45,9-32.88,15.1-1.52.9-3.42,2.56-3.06,4.31.84,4-2.31,5.9-4,8.48-1.36,2.13-3.72,3.6-4.6,6.14-.3.9-1,2.17-.68,2.67.75,1.1,2,.28,3-.1a152.47,152.47,0,0,1,22.07-7,70.31,70.31,0,0,1,8.64-1.74c2.76-.23,5.5-1.71,9.11-.29-1.63.36-2.54.6-3.46.76a168.3,168.3,0,0,0-49.47,16.28c-4.21,2.15-6.13,4.86-5,9.55,2.32,9.58,1,19.23.55,28.87v0a2.31,2.31,0,0,0-.39.31l-1.17.23c.12-3-1.89-1.63-2.88-1.13a113.14,113.14,0,0,0-11.83,6.52c-3.32,2.22-7.8,3-9.55,7.31l-.09.07c-1.12-.11-2.14-.09-2.07,1.47L58.65,146.21c-.15-1.32.87-2,1.62-2.73a121.18,121.18,0,0,1,38.2-26.3c2.58-1.15,3.69-2.55,3.7-5.5a142.73,142.73,0,0,0-1.64-24.53c-.24-1.39-.58-2.27-2-1.33-4.09,2.69-10,4.58-11.8,8.39-4.18,8.83-11.16,15.42-16.18,23.48a129.8,129.8,0,0,1-10.87,15.12c-5.16,6.07-10.38,12-14.28,19-.67,1.2-1.38,2.33-2.86,2.64l-.62-.24.34,1.14c2.85,1-.1,4.78,2.81,5.71l-2.79,3.5v-7.2c-6,6.65-8.48,14.15-11.85,21.09C29.56,180.22,27.49,182.24,29,184.75Z"/><path class="a" d="M102.8,119c.41-9.64,1.77-19.29-.55-28.87-1.13-4.69.79-7.4,5-9.55a168.3,168.3,0,0,1,49.47-16.28c.92-.16,1.83-.4,3.46-.76-3.61-1.42-6.35.06-9.11.29a70.31,70.31,0,0,0-8.64,1.74,152.47,152.47,0,0,0-22.07,7c-1,.38-2.25,1.2-3,.1-.35-.5.38-1.77.68-2.67.88-2.54,3.24-4,4.6-6.14,1.64-2.58,4.79-4.46,4-8.48-.36-1.75,1.54-3.41,3.06-4.31,10.43-6.15,20.78-12.52,32.88-15.1,8.18-1.74,16.53-1.65,24.79-2.56,3-.33,3.41,1.45,3,4A113.83,113.83,0,0,0,188.57,57c1-5.74,2.14-11.47,2.78-17.25.34-3.12,1.75-3.68,4.37-3.26,13.38,2.15,26.36,5.68,38.05,12.67,12.07,7.2,21.5,17.26,29,29.06.88,1.37,2.29,3.48,1.12,4.69-1.5,1.56-3-.69-4.37-1.43-9.32-4.9-18.87-9.2-29.39-11.12,5.15,2.12,10.33,4.15,15.44,6.36a177.45,177.45,0,0,1,23.89,13c2.11,1.33,2.21,2.35.81,4.28-9.26,12.68-18.43,25.42-27.62,38.15-1.28,1.77-2.46,1.9-4.25.47a24.43,24.43,0,0,0-8.55-4.54,48,48,0,0,0,5.32,4.07c3.76,2.15,4.9,4.47,1.18,7.66l-1.43-.3c-.41-1.61-1.91-2.2-3-3-7.62-5.61-16-10-24.46-14.1A124.52,124.52,0,0,0,166.76,111c-9-1-18-1.54-27-.22C127,111.69,114.85,115.1,102.8,119Zm125.91,7.59c-.09-.2-.13-.48-.27-.54s-.36.1-.55.17c.08.18.11.46.25.53S228.51,126.66,228.71,126.6Z"/><path class="a" d="M251.55,450.41c-8.16-.24-15.92,2.45-24,3.23A200.43,200.43,0,0,1,119,434.32a198.41,198.41,0,0,1-36.83-23.56c-1-.81-1.83-1.64-.62-3s2.37-1.68,4.05-.41c4.69,3.55,9.52,6.91,14.31,10.33.66.47,1.3,1.23,2.72.38-4.94-3.75-9.65-7.51-14.55-11-2.58-1.82-2.61-3.1-.54-5.51,8.48-9.85,16.75-19.88,25-29.9,1.5-1.82,2.6-1.94,4.56-.5,14.58,10.79,30.92,18.09,48.09,23.55a109.45,109.45,0,0,0,14.71,3.19c2,.34,2.36.87,2,2.79a102.52,102.52,0,0,0-2.17,18.14c1.16-5.68,2.35-11.35,3.48-17,.21-1.08,0-2.61,1.37-2.72,5.37-.43,11.32-1.1,15.71,2,11.77,8.25,25,13.37,37.86,19.33a117.61,117.61,0,0,0,26.86,8.7,26.46,26.46,0,0,0,5.07.65c2.88,0,2.75,2.13,3.36,4,.72,2.23-.77,2.49-2.2,2.93L244,445.07c7.58-.21,13.32-2.42,19.19-4a36.45,36.45,0,0,0,7-2.17c3.24-1.64,4.8-.83,5.27,2.62-6.58,4.07-14.22,5.07-21.39,7.44C253.18,449.29,251.8,448.82,251.55,450.41Z"/><path class="a" d="M143.15,328.64c-7.27,9.84-14.59,19.65-21.81,29.53-6.42,8.81-6.42,8.9-14.9,2C96.94,352.42,89.32,343,82.38,333a4.65,4.65,0,0,1-.48-5.2c5.7-10,8.56-21.44,15.94-30.59,3.45-4.28,8.65-5.39,13.08-7.88,1.6-.9,1.88,1.16,2.4,2.09a123.11,123.11,0,0,0,25,31.15,17.63,17.63,0,0,0,2.72,1.72l.85,0h-.07C141.86,325.82,144.06,326.78,143.15,328.64Z"/><path class="a" d="M184.51,388.46c-.08.1-.2.18-.24.29-2.46,8.12-2.5,8.28-11.47,6.12C153,390.1,134.63,382.15,118.17,370c-1.53-1.13-2.57-1.93-1-4.06,7.9-10.31,15.66-20.74,23.37-31.19,1.81-2.45,2.78-1.63,3.89.48,6,11.41,12.17,22.74,20.5,32.62,5.21,6.18,11.26,11.65,17,17.37.62.61,1.75.7,2.65,1C184.6,387,184.55,387.74,184.51,388.46Z"/><path class="a" d="M42.53,154.46c1.48-.31,2.19-1.44,2.86-2.64,3.9-7,9.12-12.94,14.28-19a129.8,129.8,0,0,0,10.87-15.12c5-8.06,12-14.65,16.18-23.48,1.8-3.81,7.71-5.7,11.8-8.39,1.43-.94,1.77-.06,2,1.33a142.73,142.73,0,0,1,1.64,24.53c0,2.95-1.12,4.35-3.7,5.5a121.18,121.18,0,0,0-38.2,26.3c-.75.77-1.77,1.41-1.62,2.73l-3.3,3.23c-.84-.11-1.19.29-1.12,1.11l-1.79,1.86c-1.65,0-2,1.07-2,2.45a1.15,1.15,0,0,0-.37.42.31.31,0,0,0-.34.36l-1,1.13c-.83-.05-1.2.35-1.19,1.16l-1.31,1.69A.32.32,0,0,0,46,160a.91.91,0,0,0-.36.44.36.36,0,0,0-.34.4l-.26.24c-2.91-.93,0-4.74-2.81-5.71C42.34,155.06,42.44,154.76,42.53,154.46Z"/><path class="b" d="M331.82,181.23c-2.45-.23-4.27,2.67-7,3.66-10,3.67-19.57,9-30.82,5.88a4.3,4.3,0,0,0-.72-.09c-1.72-.16-4.3,2.16-5-.71s2.5-3.23,4.34-4.22q19.49-10.41,39-20.71c.59-.32,1.71-.72,1.92-.49,2.51,2.83,3.67,6.4,4.4,10,.48,2.4-.93,4.73-2.59,6.59C334.71,181.9,333.64,181.79,331.82,181.23Z"/><path class="b" d="M37.89,319.68c1.34-3.89,2.56-8.25,4.31-12.38A182.88,182.88,0,0,1,54,284.14c.57-.94.87-2.62,2.47-2.33,1.36.25,1.1,1.73,1.4,2.73,2.22,7.51,4.35,15.06,8,22,1.16,2.2.29,3.37-1.73,4.31q-11.46,5.36-22.88,10.82C39.46,322.58,37.67,323.48,37.89,319.68Z"/><path class="a" d="M129.49,299.09c5.9,6.54,11.54,13.32,18.67,18.64,25.06,18.7,52.21,24.22,82,13.16.79-.29,1.62-.47,2.44-.71v1.32h0l-11.74,4.42-1.38.24-1.57.5-1.39.2-1.57.45-2.13.28a3.51,3.51,0,0,0-3,.53l-2.15.19-16.29-.09a76,76,0,0,1-18.51-3.79c-8.25-3.07-15.8-7.54-23.48-11.74-.19-1.4-1.15-1.57-2.3-1.42-3.13-4.44-8-7-11.6-11-1.11-1.23-1.58,0-1.7,1.11-.11.9.25,2.31-1.18,2.22a4,4,0,0,1-2.32-1.56c-5.22-6.32-10.64-12.5-14.37-19.89-.77-1.53-3-2.93-1.33-4.82a5.41,5.41,0,0,1,6-1.51l-.07,0,.73,1v.2c-.1,2.28.58,4.06,3,4.77l0,0c-.08,1.13-.09,2.21,1.49,2.23l0,0c-.06,1.13,0,2.2,1.5,2.24l0,0C127.07,297.79,127.55,299,129.49,299.09Z"/><path class="b" d="M139.73,110.79c9-1.32,18-.77,27,.22a124.52,124.52,0,0,1,40.7,11.31c8.48,4.08,16.84,8.49,24.46,14.1,1.13.83,2.63,1.42,3,3-.06.55-.13,1.11-.19,1.66a213.8,213.8,0,0,0-37.11-21.32c-10.83-5-19.3-2.05-28.39,3.41-6.92,4.16-13,9.43-19.86,13.67,4.79-7.2,12.45-10.67,19.57-14.76,4.28-2.46,8.86-4.41,14.38-7.11a132.47,132.47,0,0,0-41.21-3.93C141.3,111.13,140.47,111.52,139.73,110.79Z"/><path class="b" d="M149.39,322.7c7.68,4.2,15.23,8.67,23.48,11.74a6.85,6.85,0,0,1,.07,1.1c-.13,1.75,3.28,2.78,1.53,4.29-1.38,1.2-3.75-.22-5.5-.93a112.12,112.12,0,0,1-20.79-11C144.53,325.41,148.28,324.27,149.39,322.7Z"/><path class="b" d="M232.64,331.5v-1.32c14.8-6.54,26.08-17.24,35.49-30.13,1.37,4.08-1.74,6.47-3.85,8.83-7.69,8.59-16.1,16.39-26.75,21.34A9.51,9.51,0,0,1,232.64,331.5Z"/><path class="a" d="M276.41,441.35c-.76-3.58.42-5.52,4.2-6.58,4.08-1.14,7.85-3.33,11.83-4.88,2.28-.88,4.59-1.13,5.33,2.15C290.77,435.41,284.12,439.59,276.41,441.35Z"/><path class="a" d="M254.84,149.26c-1.37,1.58-2.9,2.86-5.14,2.9l-11.94-11.75c2.53-4.22,5-3.07,7.75-.1,2.21,2.39,4.7,4.54,7.06,6.79Z"/><path class="b" d="M348.07,391.17s-1.45.81-1.86-.51c-.18-.56.76-1.71,1.45-2.27,4-3.25,6.33-8.13,10.87-10.7,1.18-.67,3-2,4.27-.2,1.06,1.54-.89,2.26-1.65,3.21-2.36,2.95-4.82,5.81-7.22,8.71C352.66,390.94,351.12,391.73,348.07,391.17Z"/><path class="a" d="M29,184.75c-1.46-2.51.61-4.53,1.47-6.29,3.37-6.94,5.86-14.44,11.85-21.09v7.2Z"/><path class="b" d="M105,226.59c0,1.34-.06,2.69,0,4,.13,2-.69,2.84-2.77,2.8s-2.45-1.09-2.39-2.8c.11-3.13-.48-6.43,1.92-9,.69-.75,1.31-2.11,2.56-1.65s.58,1.72.63,2.63C105.05,223.9,105,225.25,105,226.59Z"/><path class="a" d="M77,132.23c1.75-4.28,6.23-5.09,9.55-7.31a113.14,113.14,0,0,1,11.83-6.52c1-.5,3-1.92,2.88,1.13A215.14,215.14,0,0,0,77,132.23Z"/><path class="b" d="M191.38,338.23l16.29.09c-2.25,2.59-5.24.8-7.85,1.26a24.64,24.64,0,0,1-4.21,0c0,.72-.13,1-.05,1.16.52,1.23,3.32,1.41,2.46,2.54-1.28,1.67-3.84.71-5.81.6s-1-1.68-.88-2.78S191.37,339.2,191.38,338.23Z"/><path class="b" d="M148.69,137.55a73.07,73.07,0,0,1-11.05,11.12C139.35,143,143.8,140.06,148.69,137.55Z"/><path class="b" d="M220.89,335.93l11.74-4.42C229.45,334.94,225.28,335.73,220.89,335.93Z"/><path class="b" d="M137.64,148.66a9.57,9.57,0,0,1-3.94,4.75C133.73,150.77,134.86,149,137.64,148.66Z"/><path class="b" d="M209.82,338.13a3.51,3.51,0,0,1,3-.53C212.09,339.21,211,339.19,209.82,338.13Z"/><path class="b" d="M50.47,154.86c0-1.38.32-2.43,2-2.45A2.68,2.68,0,0,1,50.47,154.86Z"/><path class="a" d="M74.83,133.77c-.07-1.56,1-1.58,2.07-1.47Z"/><path class="b" d="M133,154.4a1.93,1.93,0,0,1-1.48,2C131.47,155.33,131.67,154.45,133,154.4Z"/><path class="b" d="M217.94,336.67l1.57-.5C219.19,337,218.82,337.64,217.94,336.67Z"/><path class="b" d="M215,337.32l1.57-.45C216.22,337.72,215.85,338.4,215,337.32Z"/><path class="b" d="M47.56,157.93c0-.81.36-1.21,1.19-1.16C48.77,157.59,48.38,158,47.56,157.93Z"/><path class="b" d="M54.23,150.55c-.07-.82.28-1.22,1.12-1.11C55.4,150.23,55,150.6,54.23,150.55Z"/><path class="b" d="M126.33,164c-.35.58-.7,1.16-1,1.75C124.83,164.68,125.23,164.13,126.33,164Z"/><path class="b" d="M130.75,157.35c.14,1-.5,1.33-1.21,1.65C129.32,158,129.7,157.43,130.75,157.35Z"/><path class="b" d="M122.37,171l-1.18,1.73C121.25,171.89,121.07,170.92,122.37,171Z"/><path class="b" d="M124.41,167.15c-.44.6-.88,1.19-1.31,1.79C122.86,167.84,123.36,167.29,124.41,167.15Z"/><path class="b" d="M118.72,178.46c-.31.61-.63,1.21-1,1.81C117.7,179.46,117.17,178.41,118.72,178.46Z"/><path class="b" d="M127.47,162.05c-.13.76-.15,1.58-1.08,1.88C126.39,163.09,126.22,162.16,127.47,162.05Z"/><path class="b" d="M123.08,169.32c-.24.51-.49,1-.73,1.55C122,170.07,122.11,169.5,123.08,169.32Z"/><path class="b" d="M120.75,173.82l-.54,1.45C119.83,174.58,119.82,174,120.75,173.82Z"/><path class="b" d="M129,159.85l-.87,1.36C127.92,160.47,128,159.88,129,159.85Z"/><path class="b" d="M125.29,165.76l-.87,1.37C124.24,166.37,124.33,165.79,125.29,165.76Z"/><path class="b" d="M117.6,180.45l-.67,1.31Z"/><path class="b" d="M30.44,346.36l-.51-.75.26-.17c.09.3.19.6.28.89Z"/><path class="b" d="M31.17,347.84l-.73-1.48,0,0,.74,1.48Z"/><path class="b" d="M31.91,349.32l-.74-1.48,0,0,.74,1.47Z"/><path class="b" d="M32.7,350.74l.75,1.47-.08.06c-.24-.49-.49-1-.73-1.48Z"/><path class="b" d="M119.49,176.82l-.74,1.44C118.36,177.45,118.42,176.88,119.49,176.82Z"/><path class="b" d="M32.64,350.79c-.25-.49-.49-1-.73-1.47l0,0,.75,1.46Z"/><path class="a" d="M102.42,119.3a2.31,2.31,0,0,1,.39-.31A.92.92,0,0,1,102.42,119.3Z"/><path class="b" d="M149.45,136.83l-.8.75Z"/><path class="b" d="M121.11,172.87c-.12.3-.23.61-.35.92C120.88,173.48,121,173.17,121.11,172.87Z"/><path class="b" d="M120.16,175.52l-.64.83C119.35,175.78,119.47,175.43,120.16,175.52Z"/><path class="b" d="M45.32,160.83a.36.36,0,0,1,.34-.4A.33.33,0,0,1,45.32,160.83Z"/><path class="b" d="M46,160a.32.32,0,0,1,.23-.37l0,.27Z"/><path class="b" d="M129.53,159l-.61.86Z"/><path class="b" d="M128.07,161.22l-.63.85Z"/><path class="b" d="M49.76,155.64a.31.31,0,0,1,.34-.36C50.12,155.52,50,155.65,49.76,155.64Z"/><path class="a" d="M65.22,384.11c1.71-9.86,2.59-19.46,5.56-28.75,2.09-6.54,4.69-12.85,7-19.29.87-2.39,1.8-3,3.69-.55,9,11.48,18.45,22.55,30.18,31.4,1.21.92,1.61,1.65.52,3-8.84,10.64-17.47,21.47-27.47,31.09-.76.73-1.51,1.89-2.77.88a101.42,101.42,0,0,1-16.32-16.36A3.14,3.14,0,0,1,65.22,384.11Z"/><path class="a" d="M63,387.07c.72.6,1.3,1,1.83,1.51L80.6,403c.82.75,2,1.65.57,2.64-1,.75-2.1,2.68-3.73,1.14-5.08-4.79-10.7-9-14.94-14.69C61.08,390.17,61.77,388.77,63,387.07Z"/><path class="c" d="M108,245l.42,2.59c-.79.58.06,2-1.54,2.43A6.58,6.58,0,0,1,108,245Z"/><path class="c" d="M141.92,324.24l-.85,0Z"/><path class="b" d="M124.25,291.7c-2.41-.71-3.09-2.49-3-4.77A8.57,8.57,0,0,1,124.25,291.7Z"/><path class="b" d="M129.49,299.09c-1.94-.09-2.42-1.3-2.32-3C128,297.1,128.72,298.1,129.49,299.09Z"/><path class="b" d="M127.2,296.13c-1.54,0-1.56-1.11-1.5-2.24A2.67,2.67,0,0,1,127.2,296.13Z"/><path class="b" d="M125.72,293.91c-1.58,0-1.57-1.1-1.49-2.23A2.56,2.56,0,0,1,125.72,293.91Z"/><path class="b" d="M121.26,286.73l-.73-1Z"/><path class="a" d="M252.66,145.24c-1.64-4-5.85-5.41-8.53-8.4-1.18-1.32-1.65-1.83-.42-3.48,8.72-11.69,17.27-23.52,26-35.22.77-1,1.3-3.08,3.23-2.41s2,2.34,1.86,4c-.92,11.37-1.13,23-7.8,32.89-3.43,5.05-7.21,10.13-12.91,13.11Z"/><path class="c" d="M252.66,145.24l1.39.51c-.34,1.31,3.92,1.57.79,3.51l-2.27-2.16Z"/><path class="c" d="M42.53,154.46c-.09.3-.19.6-.28.9-.11-.38-.23-.76-.34-1.14Z"/><path class="b" d="M228.71,126.6c-.2.06-.44.22-.57.16s-.17-.35-.25-.53c.19-.07.42-.23.55-.17S228.62,126.4,228.71,126.6Z"/></svg>